<svg width="800" height="800" viewBox="0 0 800 800" xmlns="http://www.w3.org/2000/svg">
  <style>
    rect {
      fill: black;
    }
    @media (prefers-color-scheme: dark) {
      rect {
        fill: white;
      }
    }
  </style>
<path fill-rule="evenodd" clip-rule="evenodd" d="M23.5282 337.069V389.57H177.103C194.953 389.57 217.759 373.064 217.759 345.759C217.759 334.778 221.959 327.614 209.052 313.088L189.408 289.813C178.153 279.313 190.753 279.313 200.208 279.313H265.048V389.57H316.471V279.313H385.777V232.094H161.352C134.047 232.094 120.696 258.312 121.447 271.962C122.202 285.613 124.713 302.787 147.403 323.418C168.101 342.232 137.156 337.069 134.047 337.069H23.5282ZM499.483 232.094H416.527L370.022 389.574H421.777L430.173 367.524H484.775L492.88 389.574H543.576L499.483 232.094ZM441.727 329.718L459.578 271.962L476.383 329.718H441.727ZM707.394 337.069C687.443 337.069 687.443 329.718 687.443 329.718C704.538 329.718 719.695 304.812 719.695 279.313C719.695 253.813 694.793 232.094 674.835 232.094H563.228V389.574H619.938V337.073C619.938 337.073 644.085 365.424 656.685 376.974C669.29 388.524 670.336 389.574 687.439 389.574H776.459V337.073C776.468 337.069 727.344 337.069 707.394 337.069ZM655.938 300.318H619.946V271.962H655.938C672.44 271.962 675.295 300.318 655.938 300.318ZM23.5282 409.521H81.5456L96.246 462.031L109.896 409.521H170.802L186.553 462.031L202.308 409.521H252.709L206.504 567.038H160.302L140.057 492.478L117.247 567.038H69.9952L23.5282 409.521ZM371.778 410.43H288.821L242.321 567.906H294.071L302.472 545.859H357.077L365.183 567.906H415.883L371.778 410.43ZM314.026 508.05L331.877 450.294L348.677 508.05H314.026ZM708.44 456.781C698.998 456.781 688.701 457.885 699.961 468.381L719.608 491.66C732.512 506.186 732.304 512.241 732.304 523.231C732.304 550.532 705.294 567.038 687.443 567.038L563.365 567.872C546.27 567.872 545.224 566.826 532.62 555.276C520.023 543.726 495.868 515.371 495.868 515.371V567.872H439.167V410.397H550.773C570.724 410.397 595.634 432.119 595.634 457.615C595.634 483.119 580.477 508.021 563.373 508.021C563.373 508.021 570.894 515.582 583.494 515.582C596.099 515.582 644.616 515.632 644.616 515.632C647.72 515.632 678.661 520.795 657.968 501.982C635.278 481.351 632.767 464.185 632.011 450.534C631.256 436.884 643.06 409.525 670.352 409.525H776.476V456.785L708.44 456.781ZM531.864 478.615H495.864V450.26H531.864C548.37 450.26 551.221 478.615 531.864 478.615Z" fill="black"/>
</svg>
